<?xml version="1.0" standalone="no"?><!DOCTYPE svg PUBLIC "-//W3C//DTD SVG 1.1//EN" "http://www.w3.org/Graphics/SVG/1.1/DTD/svg11.dtd"><svg height="273" node-id="1" sillyvg="true" template-height="273" template-width="181" version="1.1" viewBox="0 0 181 273" width="181" xmlns="http://www.w3.org/2000/svg" xmlns:xlink="http://www.w3.org/1999/xlink"><defs node-id="42"></defs><g node-id="138"><path d="M 70.30 1.80 L 72.30 5.30 L 72.80 7.30 L 73.20 10.40 L 72.50 15.70 L 70.80 19.30 L 71.90 21.20 L 73.20 21.70 L 74.40 21.10 L 75.30 19.90 L 77.40 15.90 L 78.20 13.40 L 78.40 9.70 L 78.10 7.70 L 76.30 3.70 L 74.60 1.50 L 72.90 0.60 L 71.90 0.50 L 71.10 0.80 L 70.30 1.80 Z" fill="#ffe681" fill-rule="evenodd" group-id="1" id="形状_51" node-id="7" stroke="#000000" stroke-linecap="butt" stroke-width="1" target-height="21.2" target-width="8.099998" target-x="70.3" target-y="0.5"></path></g><g node-id="139"><path d="M 71.80 174.60 L 74.10 178.00 L 75.30 180.50 L 76.20 184.40 L 75.90 188.70 L 75.00 191.00 L 73.60 193.50 L 74.50 195.00 L 75.50 195.50 L 77.10 195.50 L 78.50 194.90 L 79.90 191.20 L 80.50 188.40 L 80.50 184.20 L 80.00 181.70 L 79.20 179.30 L 77.90 176.70 L 76.00 173.90 L 73.60 173.40 L 72.70 173.70 L 71.80 174.60 Z" fill="#db870f" fill-rule="evenodd" group-id="2" id="形状_55" node-id="8" stroke="#090303" stroke-linecap="butt" stroke-width="1" target-height="22.100006" target-width="8.699997" target-x="71.8" target-y="173.4"></path></g><g node-id="140"><path d="M 4.40 4.60 L 73.10 1.50 L 74.20 4.40 L 74.80 7.30 L 74.90 10.30 L 74.50 13.30 L 73.70 16.10 L 72.40 18.90 L 11.00 23.10 L 8.20 23.10 L 6.10 10.10 L 4.40 4.60 Z" fill="#f7a736" fill-rule="evenodd" group-id="3" id="形状_50" node-id="9" stroke="#000000" stroke-linecap="butt" stroke-width="1" target-height="21.6" target-width="70.5" target-x="4.4" target-y="1.5"></path></g><g node-id="141"><path d="M 4.80 18.20 L 77.40 15.40 L 73.20 21.00 L 5.40 23.80 L 4.40 19.10 L 4.80 18.20 Z" fill="#c27911" fill-rule="evenodd" group-id="4" id="形状_82" node-id="10" stroke="none" target-height="8.4" target-width="73" target-x="4.4" target-y="15.4"></path></g><g node-id="142"><path d="M 4.80 12.00 L 77.40 9.20 L 73.20 14.70 L 5.40 17.50 L 4.40 12.80 L 4.80 12.00 Z" fill="#ffe681" fill-rule="evenodd" group-id="5" id="形状_82_拷贝" node-id="11" stroke="none" target-height="8.3" target-width="73" target-x="4.4" target-y="9.2"></path></g><g node-id="143"><path d="M 4.60 4.30 L 5.90 4.50 L 7.20 5.40 L 8.20 6.80 L 9.90 11.00 L 10.30 13.60 L 10.40 16.30 L 9.50 20.70 L 8.70 22.20 L 7.50 23.30 L 6.30 23.80 L 5.00 23.60 L 3.70 22.70 L 2.70 21.30 L 1.00 17.10 L 0.60 14.50 L 0.50 11.80 L 1.40 7.40 L 2.20 5.90 L 3.40 4.80 L 4.60 4.30 Z" fill="#db870f" fill-rule="evenodd" group-id="6" id="椭圆_10" node-id="12" stroke="#000000" stroke-linecap="butt" stroke-width="1" target-height="19.5" target-width="9.9" target-x="0.5" target-y="4.3"></path></g><g node-id="144"><path d="M 7.90 23.10 L 11.60 49.90 L 13.10 65.40 L 14.10 80.80 L 14.10 88.00 L 13.50 98.10 L 12.10 103.40 L 10.10 131.20 L 8.30 162.50 L 7.80 175.50 L 7.90 183.70 L 77.10 180.90 L 76.10 122.30 L 74.60 72.40 L 73.50 49.10 L 72.20 29.40 L 70.90 19.70 Z" fill="#cd1821" fill-rule="evenodd" group-id="7" id="形状_52" node-id="13" stroke="#000000" stroke-linecap="butt" stroke-width="1" target-height="164" target-width="69.299995" target-x="7.8" target-y="19.7"></path></g><g node-id="145"><path d="M 4.80 180.90 L 54.50 176.00 L 64.70 175.30 L 74.60 175.30 L 77.80 192.80 L 37.80 196.50 L 17.80 197.60 L 8.70 197.40 L 6.50 197.00 L 4.40 194.80 Z" fill="#f7a736" fill-rule="evenodd" group-id="8" id="形状_53" node-id="14" stroke="#000000" stroke-linecap="butt" stroke-width="1" target-height="22.300003" target-width="73.4" target-x="4.4" target-y="175.3"></path></g><g node-id="146"><path d="M 2.80 184.50 L 76.30 179.70 L 77.00 186.00 L 2.40 191.00 Z" fill="#ffd781" fill-rule="evenodd" group-id="9" id="矩形_3" node-id="15" stroke="none" target-height="11.300003" target-width="74.6" target-x="2.4" target-y="179.7"></path></g><g node-id="147"><path d="M 5.80 191.70 L 74.80 186.60 L 74.90 192.10 L 5.40 195.80 Z" fill="#db870f" fill-opacity="0.53" fill-rule="evenodd" group-id="10" id="矩形_3_拷贝" node-id="16" stroke="none" target-height="9.199997" target-width="69.5" target-x="5.4" target-y="186.6"></path></g><g node-id="148"><path d="M 7.50 179.50 L 5.70 179.80 L 3.40 181.50 L 2.20 183.40 L 1.50 185.70 L 1.00 189.30 L 1.50 193.40 L 2.00 194.90 L 2.90 196.40 L 4.10 197.60 L 5.80 198.30 L 8.10 197.60 L 6.70 192.40 L 6.10 187.80 L 6.30 185.60 L 6.80 183.70 L 8.90 180.90 L 8.70 179.80 L 7.50 179.50 Z" fill="#db870f" fill-rule="evenodd" group-id="11" id="形状_54" node-id="17" stroke="#000000" stroke-linecap="butt" stroke-width="1" target-height="18.800003" target-width="7.8999996" target-x="1" target-y="179.5"></path></g><g node-id="149"><g node-id="157"><path d="M 35.40 34.50 L 36.90 34.50 L 37.80 36.00 L 36.90 38.00 L 34.60 40.10 L 31.00 45.10 L 26.80 50.10 L 26.10 50.30 L 25.50 50.20 L 24.10 48.90 L 23.60 47.00 L 23.60 45.20 L 26.90 41.80 L 25.40 43.80 L 28.60 40.90 L 29.90 38.90 L 30.00 38.50 L 31.00 37.30 L 32.90 35.60 L 35.40 34.50 Z M 28.40 40.10 L 28.70 39.90 L 28.60 40.20 L 27.20 41.40 L 28.40 40.00 Z M 34.20 35.70 L 33.40 35.70 L 30.30 38.60 L 32.80 36.40 L 34.20 35.60 Z M 41.30 34.30 L 42.30 34.30 L 44.30 35.80 L 52.40 45.70 L 58.80 48.30 L 60.40 49.30 L 60.70 50.00 L 60.70 51.80 L 59.40 51.70 L 56.70 51.00 L 54.10 49.90 L 51.40 48.20 L 48.20 44.70 L 44.60 38.80 L 41.50 35.10 L 41.20 34.90 L 40.40 35.10 L 41.30 34.20 Z" fill="#fff0ab" fill-rule="nonzero" group-id="12,20" node-id="91" stroke="none" target-height="17.599998" target-width="37.1" target-x="23.6" target-y="34.2"></path></g><g node-id="158"><path d="M 40.30 62.60 L 40.30 62.10 L 42.30 62.40 L 44.70 64.20 L 46.10 66.80 L 46.10 68.90 L 52.80 66.90 L 54.40 67.20 L 56.90 68.20 L 57.20 69.10 L 56.80 69.40 L 52.60 70.30 L 48.10 72.00 L 47.20 75.80 L 48.60 76.90 L 49.80 78.60 L 50.40 80.80 L 50.10 83.50 L 48.90 88.40 L 48.40 88.70 L 46.00 93.50 L 45.50 93.90 L 44.20 94.00 L 42.90 92.90 L 42.10 89.90 L 41.30 88.10 L 41.00 84.30 L 33.60 92.50 L 30.80 94.30 L 29.60 94.50 L 28.50 94.10 L 28.20 93.50 L 28.60 92.60 L 31.90 88.80 L 32.40 88.70 L 32.40 89.00 L 32.90 88.50 L 33.20 87.90 L 34.20 87.20 L 37.30 83.70 L 37.80 82.90 L 35.70 84.80 L 42.40 76.70 L 44.60 73.20 L 43.00 73.50 L 33.80 77.20 L 30.40 78.30 L 28.70 78.30 L 27.60 77.40 L 27.40 76.20 L 27.80 75.00 L 29.60 73.60 L 30.60 73.30 L 29.20 75.30 L 31.20 74.90 L 43.10 70.00 L 40.80 70.10 L 39.10 69.60 L 41.70 66.90 L 42.20 64.80 L 40.30 62.60 Z M 32.40 88.60 L 32.70 88.00 L 32.40 88.60 Z M 46.90 78.30 L 46.10 77.60 L 42.30 82.90 L 42.20 83.60 L 42.60 84.00 L 42.40 85.00 L 43.70 87.10 L 43.70 87.80 L 46.20 83.50 L 46.00 83.10 L 46.30 83.00 L 47.00 79.30 L 46.90 78.30 Z" fill="#fff0ab" fill-rule="nonzero" group-id="12,21" node-id="96" stroke="none" target-height="32.4" target-width="29.800001" target-x="27.4" target-y="62.1"></path></g><g node-id="159"><path d="M 40.40 94.30 L 41.40 94.70 L 42.10 98.50 L 43.00 98.10 L 45.80 98.70 L 48.10 100.00 L 47.80 100.90 L 42.20 102.80 L 42.00 103.50 L 42.30 103.90 L 45.00 103.50 L 46.70 104.60 L 47.20 105.40 L 47.20 106.40 L 46.60 107.50 L 45.50 108.60 L 44.10 109.30 L 44.10 109.50 L 47.20 111.50 L 50.20 112.90 L 50.00 113.70 L 49.60 114.00 L 45.60 114.80 L 42.30 115.80 L 42.20 117.80 L 53.50 119.10 L 55.10 120.00 L 54.80 120.70 L 53.80 121.60 L 52.40 122.40 L 49.80 122.10 L 42.40 119.20 L 42.40 130.50 L 41.60 131.90 L 40.30 131.20 L 37.60 126.60 L 37.30 125.50 L 37.10 124.00 L 39.00 126.00 L 39.20 124.30 L 39.40 126.70 L 39.60 119.20 L 39.40 121.30 L 39.20 119.40 L 38.80 119.10 L 38.20 119.30 L 33.20 124.40 L 32.20 124.30 L 31.90 123.70 L 31.50 122.20 L 31.70 121.50 L 35.70 118.30 L 34.10 118.50 L 32.10 118.10 L 31.40 117.50 L 30.70 116.00 L 31.00 114.50 L 31.70 113.90 L 34.20 112.60 L 35.50 111.60 L 34.60 110.50 L 33.90 108.40 L 34.60 106.70 L 36.80 103.00 L 35.70 101.60 L 35.00 99.70 L 35.70 98.80 L 36.10 98.80 L 36.60 99.60 L 37.40 100.00 L 39.60 99.40 L 39.90 98.90 L 40.10 94.60 L 40.40 94.30 Z M 39.60 112.40 L 39.40 111.40 L 32.30 115.90 L 35.00 115.30 L 39.40 113.50 L 39.60 112.40 Z M 39.80 106.30 L 39.70 105.50 L 38.20 106.50 L 37.00 110.70 L 39.60 109.10 L 39.80 106.30 Z M 39.60 105.10 L 39.70 103.60 L 38.90 103.70 L 38.00 105.90 L 39.60 105.10 Z M 39.40 114.00 L 38.80 114.00 L 38.80 114.20 L 39.40 114.00 Z M 43.10 110.90 L 42.20 110.00 L 42.20 112.20 L 42.70 112.50 L 42.40 112.90 L 44.50 112.20 L 43.50 112.20 L 43.10 110.90 Z M 44.40 104.50 L 42.20 104.70 L 42.20 106.90 L 43.10 106.30 L 44.40 104.50 Z" fill="#fff0ab" fill-rule="nonzero" group-id="12,22" node-id="101" stroke="none" target-height="37.59999" target-width="24.399998" target-x="30.7" target-y="94.3"></path></g><path d="M 31.40 138.20 L 32.00 137.90 L 32.60 138.30 L 33.80 140.20 L 37.80 138.50 L 38.60 138.50 L 40.00 139.10 L 40.90 139.90 L 41.40 142.70 L 41.10 147.40 L 40.30 151.80 L 39.80 152.40 L 38.80 151.80 L 36.30 148.40 L 33.60 154.80 L 37.10 155.30 L 38.70 156.90 L 38.90 157.40 L 38.40 158.20 L 37.70 158.00 L 35.60 155.90 L 33.10 155.60 L 30.40 159.60 L 29.70 159.60 L 28.80 158.50 L 28.70 156.10 L 29.90 154.40 L 29.90 154.90 L 30.20 154.80 L 30.90 153.80 L 29.90 152.50 L 29.30 150.90 L 28.40 147.10 L 29.80 144.50 L 30.60 139.50 L 31.00 138.50 L 31.40 138.20 Z M 38.60 141.00 L 38.60 140.00 L 37.20 140.20 L 35.40 141.10 L 33.60 143.00 L 32.90 149.80 L 35.60 143.90 L 36.30 143.90 L 37.00 146.50 L 37.80 146.90 L 38.00 147.50 L 38.10 147.30 L 38.90 143.00 L 38.60 141.00 Z M 51.90 130.20 L 52.50 130.10 L 52.80 130.40 L 53.00 135.00 L 53.50 136.90 L 55.70 141.70 L 55.50 142.20 L 52.70 143.40 L 51.80 165.20 L 51.50 165.80 L 51.10 165.80 L 48.90 163.90 L 45.70 157.20 L 49.80 161.30 L 50.70 147.80 L 48.40 151.70 L 45.00 155.40 L 43.30 156.40 L 42.40 156.20 L 41.30 155.10 L 41.10 153.70 L 41.40 152.20 L 43.20 151.50 L 45.60 149.30 L 48.80 145.20 L 48.10 145.00 L 45.70 145.40 L 44.90 145.00 L 44.40 144.20 L 44.40 143.50 L 48.20 142.70 L 50.90 141.60 L 51.90 130.20 Z M 42.30 151.50 L 42.60 151.30 Z" fill="#fff0ab" fill-rule="nonzero" group-id="12,23" node-id="106" stroke="none" target-height="35.699997" target-width="27.300001" target-x="28.4" target-y="130.1"></path></g><g node-id="150"><path d="M 74.40 122.20 L 79.60 119.10 L 88.90 115.10 L 99.70 112.00 L 110.20 110.50 L 115.80 110.30 L 121.80 110.40 L 128.40 111.00 L 134.90 112.10 L 141.90 113.80 L 149.40 116.20 L 154.40 110.60 L 156.70 108.50 L 161.10 105.80 L 164.40 105.20 L 166.40 113.60 L 166.70 119.40 L 166.40 122.20 L 168.90 131.90 L 170.60 141.70 L 171.30 152.80 L 171.00 158.30 L 170.20 163.60 L 169.20 166.90 L 167.90 169.90 L 166.20 172.60 L 162.90 175.90 L 158.40 178.20 L 154.40 181.20 L 162.60 185.30 L 166.10 187.40 L 169.80 190.10 L 173.30 193.10 L 176.40 196.40 L 178.20 198.90 L 179.50 201.50 L 180.70 205.30 L 180.80 207.90 L 180.10 210.80 L 179.10 212.00 L 177.50 212.90 L 174.70 213.40 L 168.60 212.50 L 165.00 211.30 L 161.60 209.50 L 158.40 207.20 L 160.30 217.80 L 160.80 222.70 L 161.00 234.00 L 160.40 239.70 L 158.70 247.00 L 157.40 250.20 L 155.40 253.20 L 159.10 260.10 L 160.20 264.60 L 160.00 266.60 L 159.60 267.80 L 157.60 269.60 L 154.30 270.30 L 151.40 270.20 L 144.90 267.90 L 138.40 265.20 L 130.30 267.20 L 126.50 267.70 L 117.40 268.20 L 109.50 267.30 L 103.40 265.20 L 104.20 267.90 L 104.10 268.70 L 103.40 269.20 L 91.10 271.90 L 84.80 272.40 L 82.40 272.20 L 80.00 269.80 L 79.30 268.70 L 79.00 267.50 L 79.20 266.40 L 80.00 265.20 L 81.50 264.20 L 88.40 262.20 L 85.40 259.20 L 81.40 253.70 L 79.30 250.00 L 77.60 245.90 L 76.20 241.10 L 75.30 234.10 L 75.40 230.20 L 77.10 219.40 L 78.20 214.80 L 79.40 212.20 L 68.30 200.40 L 62.10 193.20 L 61.40 192.20 L 60.20 188.70 L 59.10 183.50 L 58.80 180.70 L 58.90 178.40 L 59.70 175.90 L 61.40 174.70 L 64.30 174.30 L 66.30 174.60 L 69.10 175.80 L 72.90 178.70 L 75.40 181.20 L 80.40 184.20 L 77.40 181.40 L 73.50 176.60 L 71.50 173.30 L 69.80 169.70 L 68.60 165.60 L 68.20 162.70 L 68.40 156.20 L 67.40 141.20 L 62.80 129.60 L 60.50 122.90 L 60.40 122.20 L 62.00 120.70 L 63.40 120.00 L 65.20 119.60 L 69.50 120.10 L 74.40 122.20 Z" fill="#ffffff" fill-rule="evenodd" group-id="13" id="形状_29" node-id="23" stroke="#000000" stroke-linecap="butt" stroke-width="1" target-height="167.2" target-width="122" target-x="58.8" target-y="105.2"></path></g><g node-id="151"><path d="M 136.20 232.30 L 136.50 235.40 L 137.40 238.20 L 139.00 240.90 L 141.00 243.30 L 143.50 245.40 L 146.50 247.30 L 149.70 248.70 L 153.30 249.70 L 157.20 250.20 L 158.80 246.10 L 159.90 241.40 L 160.50 236.60 L 160.70 226.80 L 159.40 214.30 L 155.20 214.70 L 151.30 215.50 L 147.70 216.90 L 144.40 218.70 L 141.60 220.80 L 139.30 223.30 L 138.00 225.40 L 136.40 229.90 L 136.20 232.30 Z" fill="#db870f" fill-rule="nonzero" group-id="14" node-id="116" stroke="none" target-height="35.899994" target-width="24.5" target-x="136.2" target-y="214.3"></path></g><g node-id="152"><path d="M 61.70 192.10 L 64.00 195.20 L 68.50 200.30 L 79.70 212.10 L 78.70 213.80 L 77.90 216.60 L 80.40 214.80 L 82.50 212.80 L 84.20 210.50 L 85.40 208.10 L 86.20 205.50 L 86.50 202.70 L 85.60 197.90 L 83.30 193.60 L 81.00 191.20 L 78.20 189.00 L 74.80 187.20 L 71.20 185.90 L 67.30 185.00 L 63.00 184.70 L 59.60 184.90 L 61.70 192.10 Z" fill="#db870f" fill-rule="nonzero" group-id="15" node-id="121" stroke="none" target-height="31.90001" target-width="26.900002" target-x="59.6" target-y="184.7"></path></g><g node-id="153"><path d="M 168.40 131.30 L 166.20 122.50 L 166.40 119.20 L 165.80 112.30 L 164.30 105.80 L 163.70 105.50 L 160.40 106.30 L 156.20 109.00 L 154.00 111.00 L 149.20 116.50 L 142.70 114.40 L 136.10 112.70 L 129.40 111.50 L 128.20 113.50 L 126.80 117.80 L 126.60 120.10 L 127.40 124.90 L 129.80 129.20 L 132.00 131.70 L 134.80 133.90 L 138.20 135.70 L 141.80 137.00 L 145.70 137.80 L 150.10 138.10 L 153.80 137.90 L 157.20 137.30 L 160.40 136.30 L 163.50 134.90 L 166.10 133.20 L 168.40 131.30 Z" fill="#c29254" fill-rule="nonzero" group-id="16" node-id="126" stroke="none" target-height="32.600006" target-width="41.799995" target-x="126.6" target-y="105.5"></path></g><g node-id="154"><path d="M 60.90 122.50 L 61.50 125.10 L 63.20 129.90 L 67.90 141.50 L 68.10 144.10 L 68.60 144.40 L 72.90 144.10 L 76.80 143.20 L 80.40 141.90 L 83.70 140.00 L 86.40 137.80 L 88.60 135.30 L 90.90 130.90 L 91.70 126.10 L 91.40 123.30 L 90.60 120.70 L 89.40 118.20 L 87.70 116.00 L 79.00 120.00 L 74.90 122.50 L 69.90 120.30 L 65.60 119.90 L 63.90 120.20 L 62.40 120.90 L 60.90 122.50 Z" fill="#c29254" fill-rule="nonzero" group-id="17" node-id="131" stroke="none" target-height="28.399994" target-width="30.799995" target-x="60.9" target-y="116"></path></g><g node-id="155"><path d="M 105.10 111.50 L 105.40 114.10 L 107.00 118.40 L 108.20 119.90 L 109.60 120.80 L 111.10 121.20 L 113.10 120.50 L 115.20 118.20 L 116.20 116.00 L 116.80 113.50 L 117.10 110.60 L 111.00 110.80 L 105.10 111.50 Z" fill="#db870f" fill-rule="nonzero" group-id="18" node-id="136" stroke="none" target-height="10.599998" target-width="12" target-x="105.1" target-y="110.6"></path></g><g node-id="156"><g node-id="161"><path d="M 123.60 142.10 L 125.30 142.30 L 127.10 142.00 L 128.50 141.00 L 130.20 140.40 L 133.00 140.20 L 135.50 140.70 L 136.80 141.30 L 140.00 144.10 L 143.70 144.90 L 142.70 143.70 L 141.50 143.30 L 139.00 140.80 L 137.30 139.80 L 133.50 139.00 L 129.70 139.70 L 125.60 141.60 L 123.40 141.80 L 123.60 142.10 Z" fill="#050502" fill-rule="evenodd" group-id="19,24" id="形状_62" node-id="30" stroke="none" target-height="5.899994" target-width="20.299995" target-x="123.4" target-y="139"></path></g><g node-id="162"><path d="M 84.50 141.40 L 86.30 141.60 L 88.10 141.30 L 89.50 140.30 L 91.10 139.70 L 94.00 139.40 L 96.50 139.90 L 97.80 140.50 L 100.90 143.40 L 104.60 144.10 L 103.60 142.90 L 102.50 142.50 L 99.90 140.00 L 98.30 139.10 L 94.50 138.20 L 90.70 138.90 L 86.50 140.80 L 84.50 141.10 L 84.50 141.40 Z" fill="#050502" fill-rule="evenodd" group-id="19,25" id="形状_62_拷贝" node-id="31" stroke="none" target-height="5.900009" target-width="20.099998" target-x="84.5" target-y="138.2"></path></g><g node-id="163"><g node-id="165"><path d="M 113.90 160.90 L 114.70 162.70 L 115.70 162.80 L 115.80 160.80 L 114.70 160.10 Z" fill="#050502" fill-rule="evenodd" group-id="19,26,28" id="形状_66" node-id="33" stroke="none" target-height="2.699997" target-width="1.9000015" target-x="113.9" target-y="160.1"></path></g><g node-id="166"><path d="M 111.60 156.40 L 111.90 158.60 L 113.10 160.80 L 114.10 161.50 L 115.30 161.60 L 116.60 161.30 L 118.80 158.80 L 119.40 157.90 L 119.40 156.90 L 117.50 155.80 L 115.90 155.40 L 113.40 155.70 L 111.60 156.40 Z" fill="#381206" fill-rule="evenodd" group-id="19,26,29" id="形状_63" node-id="34" stroke="none" target-height="6.200012" target-width="7.800003" target-x="111.6" target-y="155.4"></path></g><g node-id="167"><path d="M 99.40 161.50 L 100.90 160.70 L 102.00 160.70 L 103.10 161.20 L 104.40 162.50 L 107.40 163.40 L 109.40 163.50 L 111.40 163.30 L 114.20 162.00 L 114.40 162.50 L 111.40 163.90 L 107.90 164.10 L 105.90 163.60 L 103.40 162.50 L 100.10 162.60 L 99.40 162.10 L 99.40 161.50 Z" fill="#050502" fill-rule="evenodd" group-id="19,26,30" id="形状_70" node-id="35" stroke="none" target-height="3.4000092" target-width="15" target-x="99.4" target-y="160.7"></path></g><path d="M 113.30 160.80 L 117.30 163.60 L 119.20 164.40 L 123.30 165.00 L 127.20 164.20 L 129.20 163.40 L 133.60 160.20 L 133.50 159.80 L 133.00 160.10 L 130.90 161.70 L 127.40 163.50 L 125.20 164.10 L 122.80 164.30 L 120.00 163.80 L 118.10 163.20 L 113.70 160.60 L 113.30 160.80 Z" fill="#050502" fill-rule="evenodd" group-id="19,26,31" id="形状_65" node-id="36" stroke="none" target-height="5.199997" target-width="20.300003" target-x="113.3" target-y="159.8"></path></g><g node-id="164"><g node-id="169"><path d="M 82.00 153.10 L 74.70 152.30 L 70.80 152.90 L 69.50 153.70 L 69.50 154.10 L 70.60 154.90 L 71.80 155.00 L 77.20 154.30 L 82.00 153.10 Z" fill="#ce1c22" fill-rule="evenodd" group-id="19,27,32" id="形状_67" node-id="38" stroke="none" target-height="2.699997" target-width="12.5" target-x="69.5" target-y="152.3"></path></g><g node-id="170"><path d="M 82.40 156.00 L 74.80 158.60 L 71.20 161.00 L 70.20 162.40 L 70.50 162.80 L 71.90 163.10 L 73.10 162.70 L 78.20 159.50 L 82.40 156.00 Z" fill="#ce1c22" fill-rule="evenodd" group-id="19,27,33" id="形状_67_拷贝" node-id="39" stroke="none" target-height="7.100006" target-width="12.200005" target-x="70.2" target-y="156"></path></g><path d="M 84.40 158.50 L 78.30 163.80 L 75.90 167.30 L 75.50 169.00 L 75.90 169.30 L 77.30 169.00 L 78.30 168.10 L 81.80 163.30 L 84.40 158.50 Z" fill="#ce1c22" fill-rule="evenodd" group-id="19,27,34" id="形状_67_拷贝_2" node-id="40" stroke="none" target-height="10.800003" target-width="8.900002" target-x="75.5" target-y="158.5"></path></g></g></svg>